# xmcd
#
# Track frame offsets:
#	150
#	17250
#	37468
#	61532
#	80451
#	109683
#	122720
#	140073
#	159152
#	179040
#	200292
#
# Disc length: 2793 seconds
#
# Revision: 1
# Processed by: cddbd v1.5.2PL0 Copyright (c) Steve Scherf et al.
# Submitted via: audiograbber 1.83.01
#
DISCID=8e0ae70b
DTITLE=the r.g. morrison - farewell my lovely
DYEAR=1900
DGENRE=
TTITLE0=love, labour, lost
TTITLE1=virginia
TTITLE2=songbird
TTITLE3=beckett
TTITLE4=broken hands
TTITLE5=introducing diamond valley
TTITLE6=i won't waltz
TTITLE7=grampher kelly
TTITLE8=small town
TTITLE9=it's not how you love
TTITLE10=clea duval
EXTD=
EXTT0=
EXTT1=
EXTT2=
EXTT3=
EXTT4=
EXTT5=
EXTT6=
EXTT7=
EXTT8=
EXTT9=
EXTT10=
PLAYORDER=
